<svg xmlns="http://www.w3.org/2000/svg" viewBox="0 0 512 512"><defs><linearGradient id="g" x1="72" y1="48" x2="448" y2="464"><stop stop-color="#38f2a0"/><stop offset=".52" stop-color="#42d8ff"/><stop offset="1" stop-color="#ff4d8d"/></linearGradient></defs><rect width="512" height="512" rx="116" fill="#07111f"/><path d="M154 112h204c28 0 50 22 50 50v188c0 28-22 50-50 50H154c-28 0-50-22-50-50V162c0-28 22-50 50-50Z" fill="url(#g)" opacity=".95"/><path d="M174 166h164c10 0 18 8 18 18v86c0 10-8 18-18 18H174c-10 0-18-8-18-18v-86c0-10 8-18 18-18Z" fill="#07111f" opacity=".9"/><path d="M220 324h72l-34 78 92-112h-70l34-78-94 112Z" fill="#fff"/><path d="M388 222h22c14 0 26 12 26 26v38c0 14-12 26-26 26h-22v-90Z" fill="#42d8ff"/></svg>